<svg width="40" height="40" viewBox="0 0 40 40" fill="none" xmlns="http://www.w3.org/2000/svg">
<path d="M27.5 0H12.5C5.5975 0 0 5.5975 0 12.5V27.5C0 34.4025 5.5975 40 12.5 40H27.5C34.4025 40 40 34.4025 40 27.5V12.5C40 5.5975 34.4025 0 27.5 0ZM36.25 27.5C36.25 32.325 32.325 36.25 27.5 36.25H12.5C7.675 36.25 3.75 32.325 3.75 27.5V12.5C3.75 7.675 7.675 3.75 12.5 3.75H27.5C32.325 3.75 36.25 7.675 36.25 12.5V27.5Z" fill="url(#paint0_linear)"/>
<path d="M20 10C14.4775 10 10 14.4775 10 20C10 25.5225 14.4775 30 20 30C25.5225 30 30 25.5225 30 20C30 14.4775 25.5225 10 20 10ZM20 26.25C16.555 26.25 13.75 23.445 13.75 20C13.75 16.5525 16.555 13.75 20 13.75C23.445 13.75 26.25 16.5525 26.25 20C26.25 23.445 23.445 26.25 20 26.25Z" fill="url(#paint1_linear)"/>
<path d="M30.75 10.5825C31.4859 10.5825 32.0825 9.9859 32.0825 9.24998C32.0825 8.51406 31.4859 7.91748 30.75 7.91748C30.0141 7.91748 29.4175 8.51406 29.4175 9.24998C29.4175 9.9859 30.0141 10.5825 30.75 10.5825Z" fill="url(#paint2_linear)"/>
<defs>
<linearGradient id="paint0_linear" x1="3.66162" y1="36.3386" x2="36.3384" y2="3.66137" gradientUnits="userSpaceOnUse">
<stop stop-color="#FFC107"/>
<stop offset="0.507" stop-color="#F44336"/>
<stop offset="0.99" stop-color="#9C27B0"/>
</linearGradient>
<linearGradient id="paint1_linear" x1="12.9291" y1="27.0709" x2="27.0709" y2="12.9291" gradientUnits="userSpaceOnUse">
<stop stop-color="#FFC107"/>
<stop offset="0.507" stop-color="#F44336"/>
<stop offset="0.99" stop-color="#9C27B0"/>
</linearGradient>
<linearGradient id="paint2_linear" x1="29.8079" y1="10.1924" x2="31.6921" y2="8.30785" gradientUnits="userSpaceOnUse">
<stop stop-color="#FFC107"/>
<stop offset="0.507" stop-color="#F44336"/>
<stop offset="0.99" stop-color="#9C27B0"/>
</linearGradient>
</defs>
</svg>
