<svg width="34" height="34" viewBox="0 0 34 34" fill="none" xmlns="http://www.w3.org/2000/svg">
<g clip-path="url(#clip0)">
<path d="M32.1232 6.00856e-08H1.8752C0.839417 0.000518859 -0.000259339 0.840713 6.00856e-08 1.87675V32.1248C0.000518859 33.1606 0.840713 34.0003 1.87675 34H32.1232C33.1595 34.0003 33.9997 33.1603 34 32.124C34 32.1238 34 32.1235 34 32.1232V1.8752C33.9995 0.839417 33.1593 -0.000259339 32.1232 6.00856e-08Z" fill="#4267B2"/>
<path d="M23.4746 34V20.8516H27.9072L28.5713 15.7051H23.4746V12.4273C23.4746 10.9407 23.8873 9.92775 26.0191 9.92775H28.7207V5.33716C28.2507 5.27464 26.638 5.13483 24.7615 5.13483C20.8435 5.13483 18.1621 7.52545 18.1621 11.9176V15.7051H13.7461V20.8516H18.1621V34H23.4746Z" fill="white"/>
</g>
<defs>
<clipPath id="clip0">
<rect width="34" height="34" fill="white"/>
</clipPath>
</defs>
</svg>