<svg width="38" height="38" viewBox="0 0 38 38" fill="none" xmlns="http://www.w3.org/2000/svg">
<g clip-path="url(#clip0)">
<path d="M19.0008 37.9997C29.4941 37.9997 38.0007 29.4931 38.0007 18.9998C38.0007 8.50651 29.4941 0 19.0008 0C8.50752 0 0.00100708 8.50651 0.00100708 18.9998C0.00100708 29.4931 8.50752 37.9997 19.0008 37.9997Z" fill="#55ACEE"/>
<path d="M30.6382 13.6546C29.824 14.0156 28.9482 14.2598 28.0296 14.3689C28.9675 13.807 29.6872 12.9179 30.0269 11.8568C29.1494 12.3774 28.177 12.755 27.143 12.9586C26.3145 12.0763 25.1342 11.5249 23.8272 11.5249C21.3195 11.5249 19.2857 13.5587 19.2857 16.0664C19.2857 16.4224 19.326 16.7688 19.4039 17.1014C15.6295 16.9121 12.2829 15.1042 10.0428 12.3557C9.65199 13.0263 9.42778 13.807 9.42778 14.6392C9.42778 16.2144 10.2301 17.6051 11.4481 18.4193C10.704 18.3959 10.0032 18.1917 9.3912 17.8506C9.39086 17.8699 9.39086 17.8892 9.39086 17.9082C9.39086 20.1087 10.957 21.944 13.0341 22.361C12.6535 22.4653 12.2514 22.5205 11.8379 22.5205C11.5446 22.5205 11.2604 22.4924 10.9834 22.4395C11.5612 24.2434 13.238 25.5565 15.2258 25.5934C13.6712 26.8117 11.7133 27.5375 9.58493 27.5375C9.21914 27.5375 8.85674 27.5162 8.50214 27.4738C10.5109 28.7629 12.8987 29.5144 15.4632 29.5144C23.8167 29.5144 28.3849 22.5943 28.3849 16.5924C28.3849 16.3956 28.3805 16.1995 28.3717 16.0051C29.2598 15.365 30.0296 14.5653 30.6382 13.6546Z" fill="#F1F2F2"/>
</g>
<defs>
<clipPath id="clip0">
<rect width="38" height="38" fill="white"/>
</clipPath>
</defs>
</svg>
